<svg xmlns="http://www.w3.org/2000/svg" xmlns:xlink="http://www.w3.org/1999/xlink" width="42.801" height="50.661" viewBox="0 0 42.801 50.661"><defs><style>.a,.b,.f{fill:none;}.a{stroke:#991b1f;}.a,.b{stroke-width:1.5px;}.b{stroke:#fff;}.c{fill:#991b1f;}.d{fill:#fff;}.e{stroke:none;}.g{filter:url(#k);}.h{filter:url(#i);}.i{filter:url(#g);}.j{filter:url(#e);}.k{filter:url(#c);}.l{filter:url(#a);}</style><filter id="a" x="7.181" y="11.021" width="29.776" height="28.454" filterUnits="userSpaceOnUse"><feOffset dy="3" input="SourceAlpha"/><feGaussianBlur stdDeviation="3" result="b"/><feFlood flood-color="#2a2b2a"/><feComposite operator="in" in2="b"/><feComposite in="SourceGraphic"/></filter><filter id="c" x="0" y="26.147" width="25.251" height="24.5" filterUnits="userSpaceOnUse"><feOffset dy="3" input="SourceAlpha"/><feGaussianBlur stdDeviation="3" result="d"/><feFlood flood-color="#2a2b2a"/><feComposite operator="in" in2="d"/><feComposite in="SourceGraphic"/></filter><filter id="e" x="6.402" y="26.158" width="23.014" height="24.502" filterUnits="userSpaceOnUse"><feOffset dy="3" input="SourceAlpha"/><feGaussianBlur stdDeviation="3" result="f"/><feFlood flood-color="#2a2b2a"/><feComposite operator="in" in2="f"/><feComposite in="SourceGraphic"/></filter><filter id="g" x="10.591" y="26.176" width="22.851" height="24.474" filterUnits="userSpaceOnUse"><feOffset dy="3" input="SourceAlpha"/><feGaussianBlur stdDeviation="3" result="h"/><feFlood flood-color="#2a2b2a"/><feComposite operator="in" in2="h"/><feComposite in="SourceGraphic"/></filter><filter id="i" x="16.375" y="26.141" width="21.864" height="24.508" filterUnits="userSpaceOnUse"><feOffset dy="3" input="SourceAlpha"/><feGaussianBlur stdDeviation="3" result="j"/><feFlood flood-color="#2a2b2a"/><feComposite operator="in" in2="j"/><feComposite in="SourceGraphic"/></filter><filter id="k" x="19.462" y="26.132" width="23.339" height="24.517" filterUnits="userSpaceOnUse"><feOffset dy="3" input="SourceAlpha"/><feGaussianBlur stdDeviation="3" result="l"/><feFlood flood-color="#2a2b2a"/><feComposite operator="in" in2="l"/><feComposite in="SourceGraphic"/></filter></defs><g transform="translate(-166.292 -23.785)"><g class="a" transform="translate(174 24.257)"><rect class="e" width="27.416" height="38.722" rx="10"/><rect class="f" x="0.75" y="0.75" width="25.916" height="37.222" rx="9.25"/></g><g class="b" transform="translate(174 24.257)"><rect class="e" width="27.133" height="38.722" rx="10"/><rect class="f" x="0.75" y="0.75" width="25.633" height="37.222" rx="9.25"/></g><g transform="translate(175 23.785)"><path class="c" d="M155.8,1621.093l-.013-.094-.075.051a3.251,3.251,0,0,0-.934.858,3.322,3.322,0,0,0-.422.8,2.849,2.849,0,0,0-.677-1.121l-.041-.022-.041.047a1.5,1.5,0,0,0-.163.206,2.325,2.325,0,0,0-.351,1.308,4.8,4.8,0,0,0,.12.778h0l-.041.013-.062.022a4.941,4.941,0,0,1-1.609.3,3.329,3.329,0,0,1-.832-.091h-.041c-.049-.011-.1-.022-.15-.037a3.727,3.727,0,0,1-2.009-1.417,3.46,3.46,0,0,1-.271-.437,3.78,3.78,0,0,1-.2-2.848,1.792,1.792,0,0,1,.08-.264c.017-.118.037-.243.062-.361v-.013a2.836,2.836,0,0,1-1.648-.49,1.7,1.7,0,0,1-.492-.693,1.176,1.176,0,0,1-.062-.2c-.017-.084.043.02.043.02.019.038.03.069.049.1a1.8,1.8,0,0,0,1.764.934,2.217,2.217,0,0,0,.434-.08,1.014,1.014,0,0,0,.107-.032c.032-.065.058-.127.082-.187.514-1.62-.153-2.51-.4-2.671-.075-.047-.389-.172-.992.14a3.308,3.308,0,0,0-.3.187h0c-.153.114-3.353,2.482-2.56,6.306a.137.137,0,0,0,.011.024v.011a2.071,2.071,0,0,1,.467-.7.064.064,0,0,1,.028-.019.773.773,0,0,0,.009.09,4.816,4.816,0,0,0,3.431,4.112c.133.036.265.063.4.09.09.015.187.022.273.041a5.65,5.65,0,0,0,.863.1h0s4.179.31,5.814-3.115c.021-.036.035-.073.052-.108h0a3.314,3.314,0,0,0,.267-.888,2.684,2.684,0,0,0,.021-.645m-8.69-4.207a.306.306,0,0,1,.172-.135.311.311,0,0,1,.092-.015.331.331,0,0,1,.159.051.3.3,0,0,1,.1.125.3.3,0,0,1-.017.308.268.268,0,0,1-.206.14.135.135,0,0,1-.05,0h-.017a.347.347,0,0,1-.144-.049.283.283,0,0,1-.1-.11h0a.327.327,0,0,1,.013-.31" transform="translate(-136.563 -1598.383)"/><path class="c" d="M129.359,1533.239a1.211,1.211,0,0,0-1.019-.772,1.576,1.576,0,0,1-.482-.151l-3.22-1.63a3.212,3.212,0,0,0-.531-.344,1.732,1.732,0,0,0-1.308-1.336,2.954,2.954,0,0,0-.2-1.858,7.186,7.186,0,0,0-2,1.056l-.86-.3a5.318,5.318,0,0,0,.163-3.177s-.374-.039-.488.8c0,0-.45,1.45-.779,1.525l-.57.116a5.076,5.076,0,0,0-.336-2.8.077.077,0,0,0-.1-.023.546.546,0,0,0-.219.463h0a7.937,7.937,0,0,1-1.058,2.469s-.738.916-.654,1.452c0,0-2.738-1.833-5.272-1.566a4.38,4.38,0,0,0,1.05,3.121,2.394,2.394,0,0,0,1.869.71,5.258,5.258,0,0,0,.667-.078,14.522,14.522,0,0,0-9.317,8.971,13.366,13.366,0,0,0-.6,5.442,10.5,10.5,0,0,0,.9,3.465c.2.467.428.935.673,1.379v.015a10.589,10.589,0,0,0,9.158,5.265h.206a10.6,10.6,0,0,0,10.051-7.928.127.127,0,0,0-.235-.088,10.206,10.206,0,0,1-11.744,5.682l-.228-.058a5.725,5.725,0,0,1-1.4-.574l-.43-.243c-4.781-2.581-2.689-7.891-2.564-8.2v-.013a.472.472,0,0,1,.032-.12,4.457,4.457,0,0,1,.187-.529,11.286,11.286,0,0,0,.49-1.325c.032-.108.06-.209.084-.308a3.963,3.963,0,0,0,.138-1.8l-.148-.52s-.968-.14-1.069-.987a.2.2,0,0,1,0-.034.089.089,0,0,1,0-.032,1.211,1.211,0,0,1,.475-.983,1.294,1.294,0,0,1,.641-.223,2.56,2.56,0,0,1,.634.021l.136.022a4.193,4.193,0,0,1,2.616,2.138,4.959,4.959,0,0,1,.3.607l.054.135a.236.236,0,0,0,.019.075c.03.116.093.374.159.667a.085.085,0,0,0,.009.047.286.286,0,0,0,.475.122l.035-.043c.321-.374.634-.714.92-1a14.431,14.431,0,0,1,1.222-1.121.325.325,0,0,0,.187-.276,3.837,3.837,0,0,1-.463-1.946,1.842,1.842,0,0,0,.955,1.591l.021.017.3.2a.213.213,0,0,1,.032.021h0a3.053,3.053,0,0,0,2.594.581c.151-.071.3-.144.454-.2a22.321,22.321,0,0,0,2.519-1.447A33.587,33.587,0,0,1,126.3,1536c1.1.321,1.392-.516,1.392-.516a3.953,3.953,0,0,1,.643-.42,1.342,1.342,0,0,0,1-1.835m-22.427,5.661h-.08l.321-.148.748-.342.064.331a.144.144,0,0,1-.155.168,7.772,7.772,0,0,0-.9-.011m1.376.374a2.029,2.029,0,0,0,.7.413.187.187,0,0,1,.131.167.644.644,0,0,1-.471.712.722.722,0,0,1-.6-1.3.2.2,0,0,1,.249,0m2.689-2.686h0a.471.471,0,0,1-.325.434h0a.474.474,0,0,1-.135.021.4.4,0,0,1-.1-.009h-.011a.986.986,0,0,1-.232-.052.948.948,0,0,0-.153-.039.058.058,0,0,1-.021,0,1.9,1.9,0,0,0-1.8.54h0l-.155.243v.013l-.009.013a.809.809,0,0,1-.288.237h0a.479.479,0,0,1-.62-.241.219.219,0,0,1-.022-.051v-.024h0c-.144-.426.463-.9.463-.9.05-.06.03-.215.03-.215a1.014,1.014,0,0,1,.278-.8.6.6,0,0,0,.164.561c.17.2.164-.1.164-.1a.934.934,0,0,1,.383-.906c-.123.275.249.677.249.677.108.067.159-.187.159-.187.187-.678.561-.635.561-.635-.1.071-.054.374-.015.534.019.079.118.1.211.1a1.634,1.634,0,0,1,.561.1,1.007,1.007,0,0,1,.643.49v.019a.184.184,0,0,1,.015.054.428.428,0,0,1,.017.106.041.041,0,0,1,0,.015Z" transform="translate(-104.052 -1524.329)"/><path class="c" d="M107.8,1699.673l-.684,2.957a.278.278,0,0,1-.258.209h-1.071a.162.162,0,0,1-.163-.209l1.361-5.891a.288.288,0,0,1,.228-.209l1.179-.168a.165.165,0,0,1,.2.136l.417,3.317c.024.187.29.187.4,0l1.929-3.336a.277.277,0,0,1,.23-.14H112.7a.161.161,0,0,1,.161.209l-1.4,6.082a.278.278,0,0,1-.258.209h-1.067a.16.16,0,0,1-.161-.209l.69-2.99-1.308,2.323a.281.281,0,0,1-.232.144h-.865a.157.157,0,0,1-.164-.14Z" transform="translate(-105.321 -1664.192)"/><path class="c" d="M141.464,1696.586l1.336-.187h1.916a.161.161,0,0,1,.161.209l-.247,1.067a.279.279,0,0,1-.258.209H142.69a.282.282,0,0,0-.26.211l-.219.948a.163.163,0,0,0,.163.209h.991a.163.163,0,0,1,.163.209l-.159.684a.279.279,0,0,1-.258.209h-.992a.278.278,0,0,0-.258.211l-.148.637a.165.165,0,0,0,.163.211h1.682a.163.163,0,0,1,.163.209l-.247,1.067a.278.278,0,0,1-.258.209h-3.177a.161.161,0,0,1-.161-.209l1.361-5.891a.28.28,0,0,1,.226-.207" transform="translate(-133.176 -1664.241)"/><path class="c" d="M166.912,1696.65l.221,6.052a.273.273,0,0,1-.264.263h-1.052a.157.157,0,0,1-.166-.155l-.03-.789a.159.159,0,0,0-.168-.155h-1.076a.277.277,0,0,0-.237.155l-.394.789a.282.282,0,0,1-.239.155h-1.052a.168.168,0,0,1-.142-.263l2.908-5.827a.282.282,0,0,1,.2-.153l1.293-.224a.163.163,0,0,1,.2.153m-2.146,4.112h.805l-.05-1.518Z" transform="translate(-151.399 -1664.316)"/><path class="c" d="M193.935,1696.31h2.99a.164.164,0,0,1,.163.211l-.159.682a.278.278,0,0,1-.258.209h-.546a.284.284,0,0,0-.26.211l-1.142,4.983a.28.28,0,0,1-.258.211H193.4a.163.163,0,0,1-.161-.211l1.149-4.979a.164.164,0,0,0-.163-.211h-.546a.161.161,0,0,1-.161-.209l.157-.682a.282.282,0,0,1,.258-.211" transform="translate(-176.564 -1664.168)"/><path class="c" d="M211.315,1696.26h3.6c.146,0,.213.146.133.282l-2.779,4.7c-.082.136-.013.282.133.282h1.419a.161.161,0,0,1,.161.209l-.187.834a.279.279,0,0,1-.258.209h-3.626c-.146,0-.213-.144-.133-.281l2.787-4.728c.08-.137.013-.281-.133-.281h-1.4a.162.162,0,0,1-.161-.209l.187-.807a.281.281,0,0,1,.258-.211" transform="translate(-189.993 -1664.128)"/></g><g transform="translate(175 23.785)"><g class="l" transform="matrix(1, 0, 0, 1, -8.71, 0)"><path class="d" d="M155.8,1621.093l-.013-.094-.075.051a3.251,3.251,0,0,0-.934.858,3.322,3.322,0,0,0-.422.8,2.849,2.849,0,0,0-.677-1.121l-.041-.022-.041.047a1.5,1.5,0,0,0-.163.206,2.325,2.325,0,0,0-.351,1.308,4.8,4.8,0,0,0,.12.778h0l-.041.013-.062.022a4.941,4.941,0,0,1-1.609.3,3.329,3.329,0,0,1-.832-.091h-.041c-.049-.011-.1-.022-.15-.037a3.727,3.727,0,0,1-2.009-1.417,3.46,3.46,0,0,1-.271-.437,3.78,3.78,0,0,1-.2-2.848,1.792,1.792,0,0,1,.08-.264c.017-.118.037-.243.062-.361v-.013a2.836,2.836,0,0,1-1.648-.49,1.7,1.7,0,0,1-.492-.693,1.176,1.176,0,0,1-.062-.2c-.017-.084.043.02.043.02.019.038.03.069.049.1a1.8,1.8,0,0,0,1.764.934,2.217,2.217,0,0,0,.434-.08,1.014,1.014,0,0,0,.107-.032c.032-.065.058-.127.082-.187.514-1.62-.153-2.51-.4-2.671-.075-.047-.389-.172-.992.14a3.308,3.308,0,0,0-.3.187h0c-.153.114-3.353,2.482-2.56,6.306a.137.137,0,0,0,.011.024v.011a2.071,2.071,0,0,1,.467-.7.064.064,0,0,1,.028-.019.773.773,0,0,0,.009.09,4.816,4.816,0,0,0,3.431,4.112c.133.036.265.063.4.09.09.015.187.022.273.041a5.65,5.65,0,0,0,.863.1h0s4.179.31,5.814-3.115c.021-.036.035-.073.052-.108h0a3.314,3.314,0,0,0,.267-.888,2.684,2.684,0,0,0,.021-.645m-8.69-4.207a.306.306,0,0,1,.172-.135.311.311,0,0,1,.092-.015.331.331,0,0,1,.159.051.3.3,0,0,1,.1.125.3.3,0,0,1-.017.308.268.268,0,0,1-.206.14.135.135,0,0,1-.05,0h-.017a.347.347,0,0,1-.144-.049.283.283,0,0,1-.1-.11h0a.327.327,0,0,1,.013-.31" transform="translate(-127.86 -1598.38)"/></g><path class="d" d="M129.359,1533.239a1.211,1.211,0,0,0-1.019-.772,1.576,1.576,0,0,1-.482-.151l-3.22-1.63a3.212,3.212,0,0,0-.531-.344,1.732,1.732,0,0,0-1.308-1.336,2.954,2.954,0,0,0-.2-1.858,7.186,7.186,0,0,0-2,1.056l-.86-.3a5.318,5.318,0,0,0,.163-3.177s-.374-.039-.488.8c0,0-.45,1.45-.779,1.525l-.57.116a5.076,5.076,0,0,0-.336-2.8.077.077,0,0,0-.1-.023.546.546,0,0,0-.219.463h0a7.937,7.937,0,0,1-1.058,2.469s-.738.916-.654,1.452c0,0-2.738-1.833-5.272-1.566a4.38,4.38,0,0,0,1.05,3.121,2.394,2.394,0,0,0,1.869.71,5.258,5.258,0,0,0,.667-.078,14.522,14.522,0,0,0-9.317,8.971,13.366,13.366,0,0,0-.6,5.442,10.5,10.5,0,0,0,.9,3.465c.2.467.428.935.673,1.379v.015a10.589,10.589,0,0,0,9.158,5.265h.206a10.6,10.6,0,0,0,10.051-7.928.127.127,0,0,0-.235-.088,10.206,10.206,0,0,1-11.744,5.682l-.228-.058a5.725,5.725,0,0,1-1.4-.574l-.43-.243c-4.781-2.581-2.689-7.891-2.564-8.2v-.013a.472.472,0,0,1,.032-.12,4.457,4.457,0,0,1,.187-.529,11.286,11.286,0,0,0,.49-1.325c.032-.108.06-.209.084-.308a3.963,3.963,0,0,0,.138-1.8l-.148-.52s-.968-.14-1.069-.987a.2.2,0,0,1,0-.034.089.089,0,0,1,0-.032,1.211,1.211,0,0,1,.475-.983,1.294,1.294,0,0,1,.641-.223,2.56,2.56,0,0,1,.634.021l.136.022a4.193,4.193,0,0,1,2.616,2.138,4.959,4.959,0,0,1,.3.607l.054.135a.236.236,0,0,0,.019.075c.03.116.093.374.159.667a.085.085,0,0,0,.009.047.286.286,0,0,0,.475.122l.035-.043c.321-.374.634-.714.92-1a14.431,14.431,0,0,1,1.222-1.121.325.325,0,0,0,.187-.276,3.837,3.837,0,0,1-.463-1.946,1.842,1.842,0,0,0,.955,1.591l.021.017.3.2a.213.213,0,0,1,.032.021h0a3.053,3.053,0,0,0,2.594.581c.151-.071.3-.144.454-.2a22.321,22.321,0,0,0,2.519-1.447A33.587,33.587,0,0,1,126.3,1536c1.1.321,1.392-.516,1.392-.516a3.953,3.953,0,0,1,.643-.42,1.342,1.342,0,0,0,1-1.835m-22.427,5.661h-.08l.321-.148.748-.342.064.331a.144.144,0,0,1-.155.168,7.772,7.772,0,0,0-.9-.011m1.376.374a2.029,2.029,0,0,0,.7.413.187.187,0,0,1,.131.167.644.644,0,0,1-.471.712.722.722,0,0,1-.6-1.3.2.2,0,0,1,.249,0m2.689-2.686h0a.471.471,0,0,1-.325.434h0a.474.474,0,0,1-.135.021.4.4,0,0,1-.1-.009h-.011a.986.986,0,0,1-.232-.052.948.948,0,0,0-.153-.039.058.058,0,0,1-.021,0,1.9,1.9,0,0,0-1.8.54h0l-.155.243v.013l-.009.013a.809.809,0,0,1-.288.237h0a.479.479,0,0,1-.62-.241.219.219,0,0,1-.022-.051v-.024h0c-.144-.426.463-.9.463-.9.05-.06.03-.215.03-.215a1.014,1.014,0,0,1,.278-.8.6.6,0,0,0,.164.561c.17.2.164-.1.164-.1a.934.934,0,0,1,.383-.906c-.123.275.249.677.249.677.108.067.159-.187.159-.187.187-.678.561-.635.561-.635-.1.071-.054.374-.015.534.019.079.118.1.211.1a1.634,1.634,0,0,1,.561.1,1.007,1.007,0,0,1,.643.49v.019a.184.184,0,0,1,.015.054.428.428,0,0,1,.017.106.041.041,0,0,1,0,.015Z" transform="translate(-104.052 -1524.329)"/><g class="k" transform="matrix(1, 0, 0, 1, -8.71, 0)"><path class="d" d="M107.8,1699.673l-.684,2.957a.278.278,0,0,1-.258.209h-1.071a.162.162,0,0,1-.163-.209l1.361-5.891a.288.288,0,0,1,.228-.209l1.179-.168a.165.165,0,0,1,.2.136l.417,3.317c.024.187.29.187.4,0l1.929-3.336a.277.277,0,0,1,.23-.14H112.7a.161.161,0,0,1,.161.209l-1.4,6.082a.278.278,0,0,1-.258.209h-1.067a.16.16,0,0,1-.161-.209l.69-2.99-1.308,2.323a.281.281,0,0,1-.232.144h-.865a.157.157,0,0,1-.164-.14Z" transform="translate(-96.61 -1664.19)"/></g><g class="j" transform="matrix(1, 0, 0, 1, -8.71, 0)"><path class="d" d="M141.464,1696.586l1.336-.187h1.916a.161.161,0,0,1,.161.209l-.247,1.067a.279.279,0,0,1-.258.209H142.69a.282.282,0,0,0-.26.211l-.219.948a.163.163,0,0,0,.163.209h.991a.163.163,0,0,1,.163.209l-.159.684a.279.279,0,0,1-.258.209h-.992a.278.278,0,0,0-.258.211l-.148.637a.165.165,0,0,0,.163.211h1.682a.163.163,0,0,1,.163.209l-.247,1.067a.278.278,0,0,1-.258.209h-3.177a.161.161,0,0,1-.161-.209l1.361-5.891a.28.28,0,0,1,.226-.207" transform="translate(-124.47 -1664.24)"/></g><g class="i" transform="matrix(1, 0, 0, 1, -8.71, 0)"><path class="d" d="M166.912,1696.65l.221,6.052a.273.273,0,0,1-.264.263h-1.052a.157.157,0,0,1-.166-.155l-.03-.789a.159.159,0,0,0-.168-.155h-1.076a.277.277,0,0,0-.237.155l-.394.789a.282.282,0,0,1-.239.155h-1.052a.168.168,0,0,1-.142-.263l2.908-5.827a.282.282,0,0,1,.2-.153l1.293-.224a.163.163,0,0,1,.2.153m-2.146,4.112h.805l-.05-1.518Z" transform="translate(-142.69 -1664.32)"/></g><g class="h" transform="matrix(1, 0, 0, 1, -8.71, 0)"><path class="d" d="M193.935,1696.31h2.99a.164.164,0,0,1,.163.211l-.159.682a.278.278,0,0,1-.258.209h-.546a.284.284,0,0,0-.26.211l-1.142,4.983a.28.28,0,0,1-.258.211H193.4a.163.163,0,0,1-.161-.211l1.149-4.979a.164.164,0,0,0-.163-.211h-.546a.161.161,0,0,1-.161-.209l.157-.682a.282.282,0,0,1,.258-.211" transform="translate(-167.86 -1664.17)"/></g><g class="g" transform="matrix(1, 0, 0, 1, -8.71, 0)"><path class="d" d="M211.315,1696.26h3.6c.146,0,.213.146.133.282l-2.779,4.7c-.082.136-.013.282.133.282h1.419a.161.161,0,0,1,.161.209l-.187.834a.279.279,0,0,1-.258.209h-3.626c-.146,0-.213-.144-.133-.281l2.787-4.728c.08-.137.013-.281-.133-.281h-1.4a.162.162,0,0,1-.161-.209l.187-.807a.281.281,0,0,1,.258-.211" transform="translate(-181.28 -1664.13)"/></g></g></g></svg>