<svg xmlns="http://www.w3.org/2000/svg" width="17.451" height="13.088" viewBox="0 0 17.451 13.088"><defs><style>.a{fill:#2a2b2a;}</style></defs><g transform="translate(0 -64)"><g transform="translate(0 64)"><g transform="translate(0 0)"><path class="a" d="M7.042,65.062c2.4,2.028,6.6,5.6,7.833,6.709a.73.73,0,0,0,1.056,0c1.236-1.114,5.439-4.682,7.834-6.711a.363.363,0,0,0,.051-.5A1.444,1.444,0,0,0,22.674,64H8.132a1.444,1.444,0,0,0-1.141.56A.363.363,0,0,0,7.042,65.062Z" transform="translate(-6.678 -64)"/><path class="a" d="M17.24,126.445a.362.362,0,0,0-.388.053c-2.656,2.252-6.046,5.138-7.112,6.1a1.472,1.472,0,0,1-2.029,0c-1.137-1.024-4.943-4.26-7.112-6.1a.364.364,0,0,0-.6.277v9.143a1.456,1.456,0,0,0,1.454,1.454H16a1.456,1.456,0,0,0,1.454-1.454v-9.143A.363.363,0,0,0,17.24,126.445Z" transform="translate(0 -124.284)"/></g></g></g></svg>