<svg xmlns="http://www.w3.org/2000/svg" width="44" height="44" viewBox="0 0 44 44"><defs><style>.a{fill:#fff;}.b{stroke:#000;}</style></defs><g transform="translate(-6 -6)"><rect class="a" width="44" height="44" transform="translate(6 6)"/><g transform="translate(12.625 19)"><g transform="translate(6.375)"><path class="b" d="M16.825,8.55v2.375h5.6a6.636,6.636,0,0,1-6.555,5.7A7.177,7.177,0,0,1,8.75,9.5a7.177,7.177,0,0,1,7.125-7.125,6.666,6.666,0,0,1,4.94,2.185l1.71-1.71A9.328,9.328,0,0,0,15.875,0a9.5,9.5,0,0,0,0,19C21.1,19,24.9,14.725,24.9,9.5V8.55Z" transform="translate(-6.375)"/></g></g></g></svg>