<svg xmlns="http://www.w3.org/2000/svg" width="13.5" height="18" viewBox="0 0 13.5 18"><defs><style>.a{fill:#2a2b2a;}</style></defs><g transform="translate(-64)"><g transform="translate(64)"><path class="a" d="M77.125,6.75H76V5.25a5.25,5.25,0,1,0-10.5,0v1.5H64.375A.375.375,0,0,0,64,7.125V16.5A1.5,1.5,0,0,0,65.5,18H76a1.5,1.5,0,0,0,1.5-1.5V7.125A.375.375,0,0,0,77.125,6.75Zm-5.252,7.834A.375.375,0,0,1,71.5,15H70a.375.375,0,0,1-.373-.416l.237-2.127a1.484,1.484,0,0,1-.614-1.206,1.5,1.5,0,0,1,3,0,1.484,1.484,0,0,1-.614,1.206ZM73.75,6.75h-6V5.25a3,3,0,0,1,6,0Z" transform="translate(-64)"/></g></g></svg>