<svg xmlns="http://www.w3.org/2000/svg" xmlns:xlink="http://www.w3.org/1999/xlink" width="140.117" height="188.159" viewBox="0 0 140.117 188.159"><defs><style>.a{fill:none;}.b{fill:#991b1f;}.c{fill:#fff;}.d{filter:url(#aa);}.e{filter:url(#y);}.f{filter:url(#w);}.g{filter:url(#u);}.h{filter:url(#s);}.i{filter:url(#q);}.j{filter:url(#o);}.k{filter:url(#m);}.l{filter:url(#k);}.m{filter:url(#i);}.n{filter:url(#g);}.o{filter:url(#e);}.p{filter:url(#c);}.q{filter:url(#a);}</style><filter id="a" x="37.73" y="78.275" width="68.003" height="62.388" filterUnits="userSpaceOnUse"><feOffset dy="3" input="SourceAlpha"/><feGaussianBlur stdDeviation="3" result="b"/><feFlood flood-color="#2a2b2a"/><feComposite operator="in" in2="b"/><feComposite in="SourceGraphic"/></filter><filter id="c" x="0" y="0" width="137.736" height="162.13" filterUnits="userSpaceOnUse"><feOffset dy="3" input="SourceAlpha"/><feGaussianBlur stdDeviation="5" result="d"/><feFlood flood-color="#2a2b2a"/><feComposite operator="in" in2="d"/><feComposite in="SourceGraphic"/></filter><filter id="e" x="7.238" y="142.502" width="48.789" height="45.602" filterUnits="userSpaceOnUse"><feOffset dy="3" input="SourceAlpha"/><feGaussianBlur stdDeviation="3" result="f"/><feFlood flood-color="#2a2b2a"/><feComposite operator="in" in2="f"/><feComposite in="SourceGraphic"/></filter><filter id="g" x="34.423" y="142.55" width="39.292" height="45.61" filterUnits="userSpaceOnUse"><feOffset dy="3" input="SourceAlpha"/><feGaussianBlur stdDeviation="3" result="h"/><feFlood flood-color="#2a2b2a"/><feComposite operator="in" in2="h"/><feComposite in="SourceGraphic"/></filter><filter id="i" x="52.209" y="142.623" width="38.6" height="45.489" filterUnits="userSpaceOnUse"><feOffset dy="3" input="SourceAlpha"/><feGaussianBlur stdDeviation="3" result="j"/><feFlood flood-color="#2a2b2a"/><feComposite operator="in" in2="j"/><feComposite in="SourceGraphic"/></filter><filter id="k" x="76.769" y="142.479" width="34.408" height="45.633" filterUnits="userSpaceOnUse"><feOffset dy="3" input="SourceAlpha"/><feGaussianBlur stdDeviation="3" result="l"/><feFlood flood-color="#2a2b2a"/><feComposite operator="in" in2="l"/><feComposite in="SourceGraphic"/></filter><filter id="m" x="89.876" y="142.439" width="40.67" height="45.672" filterUnits="userSpaceOnUse"><feOffset dy="3" input="SourceAlpha"/><feGaussianBlur stdDeviation="3" result="n"/><feFlood flood-color="#2a2b2a"/><feComposite operator="in" in2="n"/><feComposite in="SourceGraphic"/></filter><filter id="o" x="40.111" y="78.275" width="68.003" height="62.388" filterUnits="userSpaceOnUse"><feOffset dy="3" input="SourceAlpha"/><feGaussianBlur stdDeviation="3" result="p"/><feFlood flood-color="#2a2b2a"/><feComposite operator="in" in2="p"/><feComposite in="SourceGraphic"/></filter><filter id="q" x="2.381" y="0" width="137.736" height="162.13" filterUnits="userSpaceOnUse"><feOffset dy="3" input="SourceAlpha"/><feGaussianBlur stdDeviation="5" result="r"/><feFlood flood-color="#2a2b2a"/><feComposite operator="in" in2="r"/><feComposite in="SourceGraphic"/></filter><filter id="s" x="9.619" y="142.502" width="48.789" height="45.602" filterUnits="userSpaceOnUse"><feOffset dy="3" input="SourceAlpha"/><feGaussianBlur stdDeviation="3" result="t"/><feFlood flood-color="#2a2b2a"/><feComposite operator="in" in2="t"/><feComposite in="SourceGraphic"/></filter><filter id="u" x="36.804" y="142.55" width="39.292" height="45.61" filterUnits="userSpaceOnUse"><feOffset dy="3" input="SourceAlpha"/><feGaussianBlur stdDeviation="3" result="v"/><feFlood flood-color="#2a2b2a"/><feComposite operator="in" in2="v"/><feComposite in="SourceGraphic"/></filter><filter id="w" x="54.59" y="142.623" width="38.6" height="45.489" filterUnits="userSpaceOnUse"><feOffset dy="3" input="SourceAlpha"/><feGaussianBlur stdDeviation="3" result="x"/><feFlood flood-color="#2a2b2a"/><feComposite operator="in" in2="x"/><feComposite in="SourceGraphic"/></filter><filter id="y" x="79.15" y="142.479" width="34.408" height="45.633" filterUnits="userSpaceOnUse"><feOffset dy="3" input="SourceAlpha"/><feGaussianBlur stdDeviation="3" result="z"/><feFlood flood-color="#2a2b2a"/><feComposite operator="in" in2="z"/><feComposite in="SourceGraphic"/></filter><filter id="aa" x="92.256" y="142.439" width="40.67" height="45.672" filterUnits="userSpaceOnUse"><feOffset dy="3" input="SourceAlpha"/><feGaussianBlur stdDeviation="3" result="ab"/><feFlood flood-color="#2a2b2a"/><feComposite operator="in" in2="ab"/><feComposite in="SourceGraphic"/></filter></defs><g transform="translate(-103.167 -91.33)"><rect class="a" width="115.897" height="164.092" rx="30" transform="translate(115.33 106.01)"/><rect class="a" width="115.897" height="164.092" rx="30" transform="translate(115.33 106.01)"/><g transform="translate(118.167 103.33)"><g class="q" transform="matrix(1, 0, 0, 1, -15, -12)"><path class="b" d="M194,1639.557l-.056-.4-.317.214a13.815,13.815,0,0,0-3.968,3.643,14.106,14.106,0,0,0-1.793,3.388,12.094,12.094,0,0,0-2.873-4.761l-.175-.1-.175.2a6.41,6.41,0,0,0-.69.873,9.872,9.872,0,0,0-1.492,5.555,20.359,20.359,0,0,0,.508,3.3h0a1.509,1.509,0,0,1-.175.055l-.262.1a21,21,0,0,1-6.833,1.278,14.166,14.166,0,0,1-3.531-.389H172c-.206-.048-.429-.1-.635-.159a15.824,15.824,0,0,1-8.531-6.015,14.671,14.671,0,0,1-1.151-1.857c-1.976-3.626-1.984-7.777-.833-12.094a7.6,7.6,0,0,1,.341-1.119c.071-.5.159-1.031.262-1.531v-.056a12.042,12.042,0,0,1-7-2.079,7.213,7.213,0,0,1-2.087-2.944,4.984,4.984,0,0,1-.262-.857c-.071-.357.183.087.183.087.079.159.127.294.206.428a7.634,7.634,0,0,0,7.491,3.968,9.362,9.362,0,0,0,1.841-.341,4.359,4.359,0,0,0,.452-.135c.135-.278.246-.54.349-.793,2.182-6.88-.651-10.658-1.682-11.34-.317-.2-1.651-.73-4.214.6a14.009,14.009,0,0,0-1.286.794h0c-.651.484-14.237,10.539-10.872,26.775a.6.6,0,0,0,.048.1v.048a8.8,8.8,0,0,1,1.984-2.952.268.268,0,0,1,.119-.079,3.273,3.273,0,0,0,.04.381,20.45,20.45,0,0,0,14.57,17.458c.563.151,1.127.27,1.706.381.381.063.794.1,1.159.175a24.045,24.045,0,0,0,3.666.4h0s17.744,1.317,24.688-13.229c.087-.151.151-.31.222-.46h0a14.064,14.064,0,0,0,1.135-3.77,11.393,11.393,0,0,0,.087-2.737m-36.9-17.864a1.292,1.292,0,0,1,.73-.571,1.331,1.331,0,0,1,.389-.064,1.4,1.4,0,0,1,.675.215,1.254,1.254,0,0,1,.444.532,1.294,1.294,0,0,1-.071,1.309,1.134,1.134,0,0,1-.873.595.585.585,0,0,1-.214,0H158.1a1.465,1.465,0,0,1-.611-.206,1.2,1.2,0,0,1-.429-.468h0a1.388,1.388,0,0,1,.056-1.317" transform="translate(-97.31 -1531.13)"/></g><g class="p" transform="matrix(1, 0, 0, 1, -15, -12)"><path class="b" d="M211.508,1562.16a5.142,5.142,0,0,0-4.325-3.277,6.694,6.694,0,0,1-2.047-.643l-13.673-6.92a13.628,13.628,0,0,0-2.254-1.46s-.341-3.889-5.555-5.674c0,0,1.032-5.245-.865-7.888,0,0-6.595,2.381-8.5,4.484l-3.65-1.294s2.944-8.1.69-13.491c0,0-1.587-.167-2.071,3.4,0,0-1.913,6.158-3.309,6.476l-2.42.492s1.159-8.237-1.428-11.9a.325.325,0,0,0-.421-.1,2.317,2.317,0,0,0-.928,1.968h0c-.111.429-2.627,9.221-4.492,10.483,0,0-3.135,3.888-2.778,6.166,0,0-11.626-7.785-22.387-6.65,0,0-.69,7.936,4.46,13.253a10.165,10.165,0,0,0,7.936,3.016,22.291,22.291,0,0,0,2.833-.333c-1.746.5-29.894,8.872-39.56,38.092-1.944,5.333-3.174,12.546-2.547,23.109a44.6,44.6,0,0,0,3.809,14.713c.865,1.984,1.817,3.968,2.857,5.857v.063a44.964,44.964,0,0,0,38.885,22.355h.873A45,45,0,0,0,193.32,1622.8a.54.54,0,0,0-1-.373c-7.531,14.284-21.926,25.394-39.195,25.394a45.082,45.082,0,0,1-10.674-1.27l-.968-.246a24.3,24.3,0,0,1-5.952-2.436l-1.825-1.032c-20.3-10.959-11.42-33.5-10.888-34.83v-.055a2.008,2.008,0,0,1,.135-.508,18.868,18.868,0,0,1,.794-2.246,47.938,47.938,0,0,0,2.079-5.626c.135-.46.254-.889.357-1.309,1.1-4.389.794-6.793.587-7.65l-.627-2.206s-4.111-.6-4.539-4.19a.867.867,0,0,1,0-.143.372.372,0,0,1,0-.135,5.142,5.142,0,0,1,2.016-4.174,5.493,5.493,0,0,1,2.722-.944,10.888,10.888,0,0,1,2.69.087l.579.1s6.769,1.278,11.11,9.078a21.059,21.059,0,0,1,1.254,2.579l.23.571a1,1,0,0,0,.079.317c.127.492.4,1.587.675,2.833a.357.357,0,0,0,.04.2,1.214,1.214,0,0,0,2.016.516l.151-.182c1.365-1.587,2.69-3.031,3.9-4.254a61.258,61.258,0,0,1,5.19-4.761,1.379,1.379,0,0,0,.794-1.175,16.291,16.291,0,0,1-1.968-8.261c.468,4.4,2.127,5.285,4.055,6.753l.087.071,1.27.857a1,1,0,0,1,.135.087h0c3.254,2.111,7.872,3.9,11.015,2.468.643-.3,1.27-.611,1.928-.857,2.42-.96,6.92-3.793,10.7-6.142a142.418,142.418,0,0,1,16.244-5.825c4.674,1.365,5.912-2.19,5.912-2.19a16.794,16.794,0,0,1,2.73-1.786s6.174-1.159,4.261-7.793m-95.229,24.037h-.341l1.365-.627,3.174-1.452.27,1.4a.611.611,0,0,1-.659.714,33.02,33.02,0,0,0-3.809-.047m5.841,1.587a8.632,8.632,0,0,0,2.952,1.754.794.794,0,0,1,.556.706,2.733,2.733,0,0,1-2,3.023,2.954,2.954,0,0,1-3.547-1.246s-1.674-2.214.984-4.277a.849.849,0,0,1,1.055,0m11.42-11.4h0a2,2,0,0,1-1.381,1.841h0a1.988,1.988,0,0,1-.571.087,1.659,1.659,0,0,1-.4-.04h-.048a4.166,4.166,0,0,1-.984-.222,4.04,4.04,0,0,0-.651-.167.291.291,0,0,1-.087,0c-1.873-.341-5.555-.325-7.626,2.293h0l-.659,1.032v.055l-.04.056a3.427,3.427,0,0,1-1.222,1.008h0a2.032,2.032,0,0,1-2.635-1.024.939.939,0,0,1-.1-.214v-.1h0c-.611-1.809,1.968-3.8,1.968-3.8.214-.254.127-.913.127-.913a4.31,4.31,0,0,1,1.182-3.4,2.547,2.547,0,0,0,.7,2.381c.722.865.7-.428.7-.428a3.968,3.968,0,0,1,1.627-3.849c-.524,1.167,1.055,2.873,1.055,2.873.46.286.675-.794.675-.794.794-2.881,2.381-2.7,2.381-2.7-.429.3-.23,1.587-.063,2.27.079.333.5.421.9.428a6.956,6.956,0,0,1,2.381.4c1.786.667,2.476,1.46,2.73,2.079v.079a.79.79,0,0,1,.063.23,1.826,1.826,0,0,1,.071.452.175.175,0,0,1,0,.063Z" transform="translate(-89.05 -1512.33)"/></g><g class="o" transform="matrix(1, 0, 0, 1, -15, -12)"><path class="b" d="M114.88,1710.5l-2.9,12.554a1.182,1.182,0,0,1-1.1.889h-4.547a.691.691,0,0,1-.69-.889l5.777-25.013a1.222,1.222,0,0,1,.968-.889l5.007-.714a.7.7,0,0,1,.841.579l1.77,14.086c.1.793,1.23.793,1.69,0l8.19-14.165a1.174,1.174,0,0,1,.976-.6h4.825a.682.682,0,0,1,.682.889l-5.96,25.823a1.182,1.182,0,0,1-1.1.889h-4.531a.682.682,0,0,1-.682-.889l2.928-12.7-5.555,9.864a1.191,1.191,0,0,1-.984.611h-3.674a.667.667,0,0,1-.7-.6Z" transform="translate(-89.37 -1547.84)"/></g><g class="n" transform="matrix(1, 0, 0, 1, -15, -12)"><path class="b" d="M146.639,1697.194l5.674-.794h8.134a.682.682,0,0,1,.682.889l-1.048,4.531a1.182,1.182,0,0,1-1.1.888h-7.142a1.2,1.2,0,0,0-1.1.9l-.928,4.023a.691.691,0,0,0,.69.889h4.206a.69.69,0,0,1,.69.889l-.675,2.9a1.183,1.183,0,0,1-1.1.889h-4.214a1.182,1.182,0,0,0-1.1.9l-.627,2.706a.7.7,0,0,0,.69.9h7.142a.69.69,0,0,1,.69.889l-1.048,4.531a1.183,1.183,0,0,1-1.1.889H140.584a.682.682,0,0,1-.682-.889l5.777-25.014a1.191,1.191,0,0,1,.96-.881" transform="translate(-96.45 -1547.85)"/></g><g class="m" transform="matrix(1, 0, 0, 1, -15, -12)"><path class="b" d="M181.945,1697.165l.936,25.7a1.159,1.159,0,0,1-1.119,1.119h-4.468a.666.666,0,0,1-.706-.658l-.127-3.349a.675.675,0,0,0-.714-.659h-4.571a1.175,1.175,0,0,0-1.008.659l-1.674,3.349a1.2,1.2,0,0,1-1.016.659H163.01a.714.714,0,0,1-.6-1.119l12.348-24.744a1.2,1.2,0,0,1,.849-.651l5.492-.952a.69.69,0,0,1,.865.651m-9.11,17.459h3.42l-.214-6.444Z" transform="translate(-101.07 -1547.87)"/></g><g class="l" transform="matrix(1, 0, 0, 1, -15, -12)"><path class="b" d="M196.222,1696.31h12.7a.7.7,0,0,1,.69.9l-.675,2.9a1.183,1.183,0,0,1-1.1.889h-2.317a1.206,1.206,0,0,0-1.1.9l-4.849,21.157a1.19,1.19,0,0,1-1.1.9h-4.531a.69.69,0,0,1-.682-.9l4.88-21.141a.7.7,0,0,0-.69-.9h-2.317a.682.682,0,0,1-.682-.889l.667-2.9a1.2,1.2,0,0,1,1.1-.9" transform="translate(-107.46 -1547.83)"/></g><g class="k" transform="matrix(1, 0, 0, 1, -15, -12)"><path class="b" d="M216.407,1696.26h15.3c.619,0,.9.619.563,1.2l-11.8,19.958c-.349.579-.056,1.2.563,1.2h6.023a.682.682,0,0,1,.682.889l-.794,3.539a1.183,1.183,0,0,1-1.1.889h-15.4c-.619,0-.9-.611-.563-1.19l11.832-20.077c.341-.579.056-1.19-.563-1.19h-5.936a.69.69,0,0,1-.682-.889l.794-3.428a1.19,1.19,0,0,1,1.1-.9" transform="translate(-110.87 -1547.82)"/></g></g><g transform="translate(120.548 103.33)"><g class="j" transform="matrix(1, 0, 0, 1, -17.38, -12)"><path class="c" d="M194,1639.557l-.056-.4-.317.214a13.815,13.815,0,0,0-3.968,3.643,14.106,14.106,0,0,0-1.793,3.388,12.094,12.094,0,0,0-2.873-4.761l-.175-.1-.175.2a6.41,6.41,0,0,0-.69.873,9.872,9.872,0,0,0-1.492,5.555,20.359,20.359,0,0,0,.508,3.3h0a1.509,1.509,0,0,1-.175.055l-.262.1a21,21,0,0,1-6.833,1.278,14.166,14.166,0,0,1-3.531-.389H172c-.206-.048-.429-.1-.635-.159a15.824,15.824,0,0,1-8.531-6.015,14.671,14.671,0,0,1-1.151-1.857c-1.976-3.626-1.984-7.777-.833-12.094a7.6,7.6,0,0,1,.341-1.119c.071-.5.159-1.031.262-1.531v-.056a12.042,12.042,0,0,1-7-2.079,7.213,7.213,0,0,1-2.087-2.944,4.984,4.984,0,0,1-.262-.857c-.071-.357.183.087.183.087.079.159.127.294.206.428a7.634,7.634,0,0,0,7.491,3.968,9.362,9.362,0,0,0,1.841-.341,4.359,4.359,0,0,0,.452-.135c.135-.278.246-.54.349-.793,2.182-6.88-.651-10.658-1.682-11.34-.317-.2-1.651-.73-4.214.6a14.009,14.009,0,0,0-1.286.794h0c-.651.484-14.237,10.539-10.872,26.775a.6.6,0,0,0,.048.1v.048a8.8,8.8,0,0,1,1.984-2.952.268.268,0,0,1,.119-.079,3.273,3.273,0,0,0,.04.381,20.45,20.45,0,0,0,14.57,17.458c.563.151,1.127.27,1.706.381.381.063.794.1,1.159.175a24.045,24.045,0,0,0,3.666.4h0s17.744,1.317,24.688-13.229c.087-.151.151-.31.222-.46h0a14.064,14.064,0,0,0,1.135-3.77,11.393,11.393,0,0,0,.087-2.737m-36.9-17.864a1.292,1.292,0,0,1,.73-.571,1.331,1.331,0,0,1,.389-.064,1.4,1.4,0,0,1,.675.215,1.254,1.254,0,0,1,.444.532,1.294,1.294,0,0,1-.071,1.309,1.134,1.134,0,0,1-.873.595.585.585,0,0,1-.214,0H158.1a1.465,1.465,0,0,1-.611-.206,1.2,1.2,0,0,1-.429-.468h0a1.388,1.388,0,0,1,.056-1.317" transform="translate(-94.93 -1531.13)"/></g><g class="i" transform="matrix(1, 0, 0, 1, -17.38, -12)"><path class="c" d="M211.508,1562.16a5.142,5.142,0,0,0-4.325-3.277,6.694,6.694,0,0,1-2.047-.643l-13.673-6.92a13.628,13.628,0,0,0-2.254-1.46s-.341-3.889-5.555-5.674c0,0,1.032-5.245-.865-7.888,0,0-6.595,2.381-8.5,4.484l-3.65-1.294s2.944-8.1.69-13.491c0,0-1.587-.167-2.071,3.4,0,0-1.913,6.158-3.309,6.476l-2.42.492s1.159-8.237-1.428-11.9a.325.325,0,0,0-.421-.1,2.317,2.317,0,0,0-.928,1.968h0c-.111.429-2.627,9.221-4.492,10.483,0,0-3.135,3.888-2.778,6.166,0,0-11.626-7.785-22.387-6.65,0,0-.69,7.936,4.46,13.253a10.165,10.165,0,0,0,7.936,3.016,22.291,22.291,0,0,0,2.833-.333c-1.746.5-29.894,8.872-39.56,38.092-1.944,5.333-3.174,12.546-2.547,23.109a44.6,44.6,0,0,0,3.809,14.713c.865,1.984,1.817,3.968,2.857,5.857v.063a44.964,44.964,0,0,0,38.885,22.355h.873A45,45,0,0,0,193.32,1622.8a.54.54,0,0,0-1-.373c-7.531,14.284-21.926,25.394-39.195,25.394a45.082,45.082,0,0,1-10.674-1.27l-.968-.246a24.3,24.3,0,0,1-5.952-2.436l-1.825-1.032c-20.3-10.959-11.42-33.5-10.888-34.83v-.055a2.008,2.008,0,0,1,.135-.508,18.868,18.868,0,0,1,.794-2.246,47.938,47.938,0,0,0,2.079-5.626c.135-.46.254-.889.357-1.309,1.1-4.389.794-6.793.587-7.65l-.627-2.206s-4.111-.6-4.539-4.19a.867.867,0,0,1,0-.143.372.372,0,0,1,0-.135,5.142,5.142,0,0,1,2.016-4.174,5.493,5.493,0,0,1,2.722-.944,10.888,10.888,0,0,1,2.69.087l.579.1s6.769,1.278,11.11,9.078a21.059,21.059,0,0,1,1.254,2.579l.23.571a1,1,0,0,0,.079.317c.127.492.4,1.587.675,2.833a.357.357,0,0,0,.04.2,1.214,1.214,0,0,0,2.016.516l.151-.182c1.365-1.587,2.69-3.031,3.9-4.254a61.258,61.258,0,0,1,5.19-4.761,1.379,1.379,0,0,0,.794-1.175,16.291,16.291,0,0,1-1.968-8.261c.468,4.4,2.127,5.285,4.055,6.753l.087.071,1.27.857a1,1,0,0,1,.135.087h0c3.254,2.111,7.872,3.9,11.015,2.468.643-.3,1.27-.611,1.928-.857,2.42-.96,6.92-3.793,10.7-6.142a142.418,142.418,0,0,1,16.244-5.825c4.674,1.365,5.912-2.19,5.912-2.19a16.794,16.794,0,0,1,2.73-1.786s6.174-1.159,4.261-7.793m-95.229,24.037h-.341l1.365-.627,3.174-1.452.27,1.4a.611.611,0,0,1-.659.714,33.02,33.02,0,0,0-3.809-.047m5.841,1.587a8.632,8.632,0,0,0,2.952,1.754.794.794,0,0,1,.556.706,2.733,2.733,0,0,1-2,3.023,2.954,2.954,0,0,1-3.547-1.246s-1.674-2.214.984-4.277a.849.849,0,0,1,1.055,0m11.42-11.4h0a2,2,0,0,1-1.381,1.841h0a1.988,1.988,0,0,1-.571.087,1.659,1.659,0,0,1-.4-.04h-.048a4.166,4.166,0,0,1-.984-.222,4.04,4.04,0,0,0-.651-.167.291.291,0,0,1-.087,0c-1.873-.341-5.555-.325-7.626,2.293h0l-.659,1.032v.055l-.04.056a3.427,3.427,0,0,1-1.222,1.008h0a2.032,2.032,0,0,1-2.635-1.024.939.939,0,0,1-.1-.214v-.1h0c-.611-1.809,1.968-3.8,1.968-3.8.214-.254.127-.913.127-.913a4.31,4.31,0,0,1,1.182-3.4,2.547,2.547,0,0,0,.7,2.381c.722.865.7-.428.7-.428a3.968,3.968,0,0,1,1.627-3.849c-.524,1.167,1.055,2.873,1.055,2.873.46.286.675-.794.675-.794.794-2.881,2.381-2.7,2.381-2.7-.429.3-.23,1.587-.063,2.27.079.333.5.421.9.428a6.956,6.956,0,0,1,2.381.4c1.786.667,2.476,1.46,2.73,2.079v.079a.79.79,0,0,1,.063.23,1.826,1.826,0,0,1,.071.452.175.175,0,0,1,0,.063Z" transform="translate(-86.67 -1512.33)"/></g><g class="h" transform="matrix(1, 0, 0, 1, -17.38, -12)"><path class="c" d="M114.88,1710.5l-2.9,12.554a1.182,1.182,0,0,1-1.1.889h-4.547a.691.691,0,0,1-.69-.889l5.777-25.013a1.222,1.222,0,0,1,.968-.889l5.007-.714a.7.7,0,0,1,.841.579l1.77,14.086c.1.793,1.23.793,1.69,0l8.19-14.165a1.174,1.174,0,0,1,.976-.6h4.825a.682.682,0,0,1,.682.889l-5.96,25.823a1.182,1.182,0,0,1-1.1.889h-4.531a.682.682,0,0,1-.682-.889l2.928-12.7-5.555,9.864a1.191,1.191,0,0,1-.984.611h-3.674a.667.667,0,0,1-.7-.6Z" transform="translate(-86.99 -1547.84)"/></g><g class="g" transform="matrix(1, 0, 0, 1, -17.38, -12)"><path class="c" d="M146.639,1697.194l5.674-.794h8.134a.682.682,0,0,1,.682.889l-1.048,4.531a1.182,1.182,0,0,1-1.1.888h-7.142a1.2,1.2,0,0,0-1.1.9l-.928,4.023a.691.691,0,0,0,.69.889h4.206a.69.69,0,0,1,.69.889l-.675,2.9a1.183,1.183,0,0,1-1.1.889h-4.214a1.182,1.182,0,0,0-1.1.9l-.627,2.706a.7.7,0,0,0,.69.9h7.142a.69.69,0,0,1,.69.889l-1.048,4.531a1.183,1.183,0,0,1-1.1.889H140.584a.682.682,0,0,1-.682-.889l5.777-25.014a1.191,1.191,0,0,1,.96-.881" transform="translate(-94.07 -1547.85)"/></g><g class="f" transform="matrix(1, 0, 0, 1, -17.38, -12)"><path class="c" d="M181.945,1697.165l.936,25.7a1.159,1.159,0,0,1-1.119,1.119h-4.468a.666.666,0,0,1-.706-.658l-.127-3.349a.675.675,0,0,0-.714-.659h-4.571a1.175,1.175,0,0,0-1.008.659l-1.674,3.349a1.2,1.2,0,0,1-1.016.659H163.01a.714.714,0,0,1-.6-1.119l12.348-24.744a1.2,1.2,0,0,1,.849-.651l5.492-.952a.69.69,0,0,1,.865.651m-9.11,17.459h3.42l-.214-6.444Z" transform="translate(-98.69 -1547.87)"/></g><g class="e" transform="matrix(1, 0, 0, 1, -17.38, -12)"><path class="c" d="M196.222,1696.31h12.7a.7.7,0,0,1,.69.9l-.675,2.9a1.183,1.183,0,0,1-1.1.889h-2.317a1.206,1.206,0,0,0-1.1.9l-4.849,21.157a1.19,1.19,0,0,1-1.1.9h-4.531a.69.69,0,0,1-.682-.9l4.88-21.141a.7.7,0,0,0-.69-.9h-2.317a.682.682,0,0,1-.682-.889l.667-2.9a1.2,1.2,0,0,1,1.1-.9" transform="translate(-105.08 -1547.83)"/></g><g class="d" transform="matrix(1, 0, 0, 1, -17.38, -12)"><path class="c" d="M216.407,1696.26h15.3c.619,0,.9.619.563,1.2l-11.8,19.958c-.349.579-.056,1.2.563,1.2h6.023a.682.682,0,0,1,.682.889l-.794,3.539a1.183,1.183,0,0,1-1.1.889h-15.4c-.619,0-.9-.611-.563-1.19l11.832-20.077c.341-.579.056-1.19-.563-1.19h-5.936a.69.69,0,0,1-.682-.889l.794-3.428a1.19,1.19,0,0,1,1.1-.9" transform="translate(-108.49 -1547.82)"/></g></g></g></svg>